Coordinates
version=1
nRows=9
nColumns=24
inDegrees=yes

Units are S.I. units (second, meters, Newtons, ...)
Angles are in degrees.

endheader
time	pelvis_tilt	pelvis_list	pelvis_rotation	pelvis_tx	pelvis_ty	pelvis_tz	hip_flexion_r	hip_adduction_r	hip_rotation_r	knee_angle_r	ankle_angle_r	subtalar_angle_r	mtp_angle_r	hip_flexion_l	hip_adduction_l	hip_rotation_l	knee_angle_l	ankle_angle_l	subtalar_angle_l	mtp_angle_l	lumbar_extension	lumbar_bending	lumbar_rotation
      0.74150000	      0.82653912	     -3.85210024	     -3.98800381	     -0.48074576	      1.01366499	      0.33453142	     11.30176652	      6.98532019	     -1.68592327	    -16.12021358	     -2.31313694	    -12.02849179	     -4.10980527	     18.55429414	    -10.97034873	    -11.61221373	    -75.20264636	     -1.12411863	    -16.91990201	      7.82461639	    -12.82399445	      5.25227257	      9.11621184
      0.74566667	      0.86995827	     -3.75875633	     -4.06495534	     -0.47529211	      1.01471168	      0.33491523	     10.76444314	      6.90831293	     -1.52899870	    -15.82441760	     -2.18702977	    -12.04360522	     -4.10245756	     19.17351070	    -10.90400993	    -11.64923761	    -75.10189647	     -0.81729456	    -16.92283959	      7.82461639	    -12.84772301	      5.11567419	      9.20898484
      0.74983333	      1.05759037	     -3.68169891	     -4.26620475	     -0.46998574	      1.01595936	      0.33564289	     10.07132917	      6.88132495	     -1.18098218	    -15.51517161	     -2.13783183	    -12.15705972	     -4.05331815	     19.57069473	    -10.91724725	    -11.83717868	    -74.91151908	     -0.40828649	    -16.74877471	      7.82461639	    -13.09668331	      4.91615537	      9.75867918
      0.75400000	      1.08039751	     -3.59053544	     -4.33093776	     -0.46456012	      1.01692405	      0.33595957	      9.55334800	      6.79454989	     -1.05117789	    -15.20824588	     -2.02638037	    -12.15977474	     -4.04731141	     20.18360999	    -10.84021312	    -11.87967878	    -74.66030821	     -0.13908907	    -16.77769170	      7.82461639	    -13.10148549	      4.78909066	      9.79988698
      0.75816667	      1.29931287	     -3.49094962	     -4.47347423	     -0.45916591	      1.01824405	      0.33648315	      8.80074737	      6.70575485	     -0.79961290	    -14.84963002	     -1.97599999	    -12.19225149	     -4.00460990	     20.50541589	    -10.78520894	    -12.04942088	    -74.27943841	      0.20715384	    -16.68500489	      7.82461639	    -13.36913535	      4.58584358	     10.15931373
      0.76233333	      1.32846260	     -3.39627678	     -4.53776263	     -0.45373061	      1.01919480	      0.33676458	      8.26084788	      6.60640339	     -0.67489568	    -14.50701357	     -1.92442125	    -12.19724773	     -3.99438097	     21.06289622	    -10.69415725	    -12.11711987	    -73.86591048	      0.48642109	    -16.71122771	      7.82461639	    -13.39216907	      4.45044889	     10.23602793
      0.76650000	      1.57232948	     -3.30068331	     -4.65204062	     -0.44823986	      1.02055528	      0.33720767	      7.44321031	      6.50275692	     -0.46674624	    -14.07951378	     -1.87421780	    -12.21305811	     -3.96296664	     21.30413012	    -10.62469129	    -12.29444586	    -73.30394870	      0.70741960	    -16.68094376	      7.82461639	    -13.65937875	      4.26267701	     10.53213943
      0.77066667	      1.73574369	     -3.20489817	     -4.74650054	     -0.44274115	      1.02173436	      0.33758390	      6.71528377	      6.39465428	     -0.29405011	    -13.65528655	     -1.84872272	    -12.23084545	     -3.93861239	     21.62749832	    -10.54340400	    -12.45421325	    -72.69029958	      0.91335254	    -16.74289451	      7.82461639	    -13.83349066	      4.08919626	     10.68983383
      0.77483333	      1.91448681	     -3.17047362	     -4.93927041	     -0.43728185	      1.02287181	      0.33828101	      5.95115701	      6.38353273	      0.04554006	    -13.19968947	     -1.85210861	    -12.35967625	     -3.59291019	     21.88389797	    -10.60146909	    -12.72945500	    -72.02713712	      1.16515798	    -16.75989111	     -8.08229937	    -14.03854114	      3.94694691	     11.01910916
